<svg width="23" height="28" viewBox="0 0 23 28" fill="none" xmlns="http://www.w3.org/2000/svg">
<path d="M4.05882 4.05882H7.44118C7.44118 2.98236 7.8688 1.94998 8.62998 1.1888C9.39116 0.427625 10.4235 0 11.5 0C12.5765 0 13.6088 0.427625 14.37 1.1888C15.1312 1.94998 15.5588 2.98236 15.5588 4.05882H18.9412C20.0176 4.05882 21.05 4.48645 21.8112 5.24763C22.5724 6.0088 23 7.04118 23 8.11765V23C23 24.0765 22.5724 25.1088 21.8112 25.87C21.05 26.6312 20.0176 27.0588 18.9412 27.0588H4.05882C2.98236 27.0588 1.94998 26.6312 1.1888 25.87C0.427625 25.1088 0 24.0765 0 23V8.11765C0 7.04118 0.427625 6.0088 1.1888 5.24763C1.94998 4.48645 2.98236 4.05882 4.05882 4.05882ZM4.05882 5.41177C3.34118 5.41177 2.65293 5.69685 2.14548 6.2043C1.63802 6.71175 1.35294 7.4 1.35294 8.11765V23C1.35294 23.7176 1.63802 24.4059 2.14548 24.9134C2.65293 25.4208 3.34118 25.7059 4.05882 25.7059H18.9412C19.6588 25.7059 20.3471 25.4208 20.8545 24.9134C21.362 24.4059 21.6471 23.7176 21.6471 23V8.11765C21.6471 7.4 21.362 6.71175 20.8545 6.2043C20.3471 5.69685 19.6588 5.41177 18.9412 5.41177H17.5882V9.47059H5.41176V5.41177H4.05882ZM6.76471 8.11765H16.2353V5.41177H6.76471V8.11765ZM11.5 1.35294C10.7824 1.35294 10.0941 1.63802 9.58665 2.14548C9.0792 2.65293 8.79412 3.34118 8.79412 4.05882H14.2059C14.2059 3.34118 13.9208 2.65293 13.4133 2.14548C12.9059 1.63802 12.2176 1.35294 11.5 1.35294ZM4.05882 12.1765H18.9412V13.5294H4.05882V12.1765ZM4.05882 16.2353H18.9412V17.5882H4.05882V16.2353ZM4.05882 20.2941H16.2353V21.6471H4.05882V20.2941Z" fill="#3C3C3B"/>
</svg>
