<svg width="27" height="18" viewBox="0 0 27 18" fill="none" xmlns="http://www.w3.org/2000/svg">
<path fill-rule="evenodd" clip-rule="evenodd" d="M0 6.35965C0 6.04475 0.255276 5.78947 0.570175 5.78947H25.4298C25.7447 5.78947 26 6.04475 26 6.35965V16.3947C26 16.7096 25.7447 16.9649 25.4298 16.9649H0.570175C0.255276 16.9649 0 16.7096 0 16.3947V6.35965ZM0.684211 6.47368V16.2807H25.3158V6.47368H0.684211Z" fill="#3C3C3B"/>
<path fill-rule="evenodd" clip-rule="evenodd" d="M10.0351 5.78947H15.9649V8.41228C15.9649 8.9791 15.5054 9.4386 14.9386 9.4386H11.0614C10.4946 9.4386 10.0351 8.9791 10.0351 8.41228V5.78947ZM10.7193 6.47368V8.41228C10.7193 8.60122 10.8725 8.75439 11.0614 8.75439H14.9386C15.1275 8.75439 15.2807 8.60122 15.2807 8.41228V6.47368H10.7193Z" fill="#3C3C3B"/>
<path fill-rule="evenodd" clip-rule="evenodd" d="M5.36675 1.68421L0.587344 6.59817L0.096866 6.12113L4.90985 1.17264C5.0172 1.06226 5.16462 1 5.31859 1H20.531C20.6819 1 20.8267 1.05984 20.9335 1.16639L25.8994 6.11738L25.4164 6.60192L20.4838 1.68421H5.36675Z" fill="#3C3C3B"/>
<path fill-rule="evenodd" clip-rule="evenodd" d="M12.6579 6.13158V1.34211L13.3421 1.34211V6.13158H12.6579Z" fill="#3C3C3B"/>
<path fill-rule="evenodd" clip-rule="evenodd" d="M0 6.35965C0 6.04475 0.255276 5.78947 0.570175 5.78947H25.4298C25.7447 5.78947 26 6.04475 26 6.35965V16.3947C26 16.7096 25.7447 16.9649 25.4298 16.9649H0.570175C0.255276 16.9649 0 16.7096 0 16.3947V6.35965ZM0.684211 6.47368V16.2807H25.3158V6.47368H0.684211Z" stroke="#3C3C3B" stroke-width="0.684211"/>
<path fill-rule="evenodd" clip-rule="evenodd" d="M10.0351 5.78947H15.9649V8.41228C15.9649 8.9791 15.5054 9.4386 14.9386 9.4386H11.0614C10.4946 9.4386 10.0351 8.9791 10.0351 8.41228V5.78947ZM10.7193 6.47368V8.41228C10.7193 8.60122 10.8725 8.75439 11.0614 8.75439H14.9386C15.1275 8.75439 15.2807 8.60122 15.2807 8.41228V6.47368H10.7193Z" stroke="#3C3C3B" stroke-width="0.684211"/>
<path fill-rule="evenodd" clip-rule="evenodd" d="M5.36675 1.68421L0.587344 6.59817L0.096866 6.12113L4.90985 1.17264C5.0172 1.06226 5.16462 1 5.31859 1H20.531C20.6819 1 20.8267 1.05984 20.9335 1.16639L25.8994 6.11738L25.4164 6.60192L20.4838 1.68421H5.36675Z" stroke="#3C3C3B" stroke-width="0.684211"/>
<path fill-rule="evenodd" clip-rule="evenodd" d="M12.6579 6.13158V1.34211L13.3421 1.34211V6.13158H12.6579Z" stroke="#3C3C3B" stroke-width="0.684211"/>
</svg>
